<svg version="1.1" stroke="none" fill="#A2E531" xmlns="http://www.w3.org/2000/svg" width="500" height="500">
<path d="M0 0 C165 0 330 0 500 0 C500 165 500 330 500 500 C335 500 170 500 0 500 C0 335 0 170 0 0 Z "  transform="translate(0,0)"/>
<path d="M0 0 C1.47432204 -0.00761181 1.47432204 -0.00761181 2.97842836 -0.0153774 C4.05583898 -0.01587516 5.1332496 -0.01637292 6.24330902 -0.01688576 C7.3898217 -0.02126801 8.53633437 -0.02565027 9.71758986 -0.03016531 C12.9006332 -0.04122127 16.08364882 -0.04777508 19.26670694 -0.05234647 C22.69976447 -0.05830954 26.13280396 -0.06991773 29.5658493 -0.08063698 C37.85796442 -0.10514661 46.15008551 -0.11978693 54.44222569 -0.13269705 C56.7854073 -0.13641032 59.12858832 -0.14038345 61.47176933 -0.14444971 C76.03074427 -0.16968985 90.58972017 -0.19173732 105.14871216 -0.20417786 C108.5202103 -0.20710743 111.89170841 -0.21006911 115.26320648 -0.21308327 C116.10115012 -0.21382932 116.93909375 -0.21457537 117.80242962 -0.21534403 C131.36737178 -0.2279894 144.93218263 -0.26120212 158.49706346 -0.3028851 C172.43256183 -0.34535484 186.36799307 -0.36887878 200.30355597 -0.37409842 C208.12428698 -0.37750705 215.94481286 -0.38919715 223.76548004 -0.42220116 C230.42810002 -0.45027236 237.09047279 -0.46117022 243.7531473 -0.4500057 C247.14932207 -0.44483659 250.54456254 -0.45034445 253.94073105 -0.47247124 C257.63267526 -0.49521026 261.32332961 -0.48684367 265.01528168 -0.47098732 C266.07484652 -0.48486941 267.13441136 -0.49875149 268.22608423 -0.51305425 C278.94023507 -0.4002073 289.41875189 3.53523041 297.13722992 11.13701439 C305.58990189 20.99557225 308.75133105 31.31383584 308.65189362 44.15407372 C308.65883914 45.3140289 308.66578467 46.47398409 308.67294067 47.66908944 C308.6879692 50.85738847 308.6853146 54.04507961 308.67478764 57.2333777 C308.66775344 60.68408473 308.6838254 64.13469941 308.69678497 67.58537865 C308.71836069 74.3334057 308.71831457 81.08126369 308.71015943 87.82931386 C308.70384385 93.31761017 308.7050107 98.8058574 308.7114315 104.29415321 C308.71233316 105.07711202 308.71323481 105.86007082 308.71416379 106.66675565 C308.71601511 108.25765229 308.71787767 109.8485489 308.71975135 111.43944551 C308.73630769 126.33805899 308.72762938 141.23657761 308.71076577 156.13518538 C308.69607367 169.74429153 308.7106941 183.3531768 308.73953594 196.96225451 C308.76897924 210.96015319 308.77988768 224.9579501 308.77035373 238.95587838 C308.76933126 240.54133358 308.76833664 242.1267888 308.76737022 243.71224403 C308.76689383 244.49217723 308.76641744 245.27211042 308.76592662 246.07567795 C308.76376883 251.55152463 308.77353266 257.02727426 308.78814125 262.50309944 C308.80571971 269.18495112 308.80546883 275.86652146 308.7827896 282.54836236 C308.77169611 285.95278318 308.7711074 289.35630489 308.7870903 292.76076698 C308.91974983 323.45495375 308.91974983 323.45495375 298.21926117 336.13701439 C288.716761 345.26511962 278.35884004 348.59249719 265.52562714 348.54488182 C263.79672294 348.55613517 263.79672294 348.55613517 262.03289139 348.56761587 C258.8512575 348.58519666 255.66993712 348.58944865 252.48826551 348.58782458 C249.04975406 348.58927459 245.61132696 348.60788044 242.17285919 348.62407494 C234.66229873 348.65612493 227.15180714 348.66600283 219.64118719 348.67171717 C214.94606334 348.67547497 210.25095771 348.68428894 205.55584335 348.69421577 C192.5404649 348.72114706 179.52510401 348.74366247 166.50969505 348.74609375 C165.67766391 348.74624932 164.84563276 348.7464049 163.98838855 348.74656519 C162.30187074 348.74685623 160.61535294 348.7471416 158.92883514 348.74742134 C158.09171674 348.74756419 157.25459835 348.74770705 156.39211273 348.74785423 C155.1348913 348.74806374 155.1348913 348.74806374 153.85227145 348.74827747 C140.27915751 348.75141102 126.70636305 348.78798613 113.13335453 348.83949049 C99.17736174 348.89202327 85.22152645 348.91820584 71.26543248 348.91764486 C63.43792686 348.9178969 55.61078839 348.92901153 47.78337479 348.96882057 C41.11679706 349.0025547 34.45072942 349.01181637 27.78409271 348.99006362 C24.38736182 348.97967747 20.99243546 348.98408352 17.59568214 349.01182747 C-8.55047168 349.21206468 -8.55047168 349.21206468 -19.86277008 341.13701439 C-20.60502398 340.62859819 -21.34727787 340.120182 -22.11202431 339.59635925 C-29.97533675 333.88398588 -33.78485185 324.31337728 -35.86277008 315.13701439 C-36.26149316 311.18395531 -36.26875886 307.26665585 -36.24372101 303.29594994 C-36.24840098 302.14289958 -36.25308095 300.98984922 -36.25790274 299.80185795 C-36.26981705 295.95903079 -36.26040912 292.1165626 -36.25095367 288.27373314 C-36.25337143 285.51018607 -36.26025569 282.74665399 -36.26688385 279.98311424 C-36.28019018 273.2687262 -36.27735733 266.55443904 -36.26864593 259.84004712 C-36.26185754 254.38079011 -36.26095764 248.92156128 -36.26421738 243.46230125 C-36.26467708 242.68389151 -36.26513677 241.90548177 -36.2656104 241.10348386 C-36.26656963 239.5219225 -36.26754227 237.94036115 -36.26852818 236.35879982 C-36.27707299 221.54518049 -36.26726223 206.73161695 -36.25112708 191.91800678 C-36.23772472 179.22047358 -36.24005307 166.52302267 -36.25388336 153.82549095 C-36.26995526 139.06314331 -36.2762491 124.30084451 -36.26704657 109.53848934 C-36.26609097 107.96290208 -36.26514786 106.3873148 -36.26421738 104.81172752 C-36.26375455 104.03660543 -36.26329172 103.26148333 -36.26281487 102.46287268 C-36.26022981 97.01320734 -36.26458553 91.56357311 -36.27165604 86.11391258 C-36.28008914 79.46824063 -36.27775297 72.82267492 -36.2618138 66.17701507 C-36.25395524 62.78936045 -36.25242574 59.40202842 -36.26076126 56.0143528 C-36.26897788 52.33541932 -36.25865284 48.65698092 -36.24372101 44.97807884 C-36.25041317 43.91678103 -36.25710534 42.85548323 -36.2640003 41.76202488 C-36.16814169 29.55723483 -32.41964938 19.44986331 -24.20261383 10.28545189 C-17.57647097 4.17624216 -9.04733542 0.02484737 0 0 Z " fill="#A2E531" transform="translate(113.8627700805664,75.86298561096191)"/>
<path d="M0 0 C5.63402192 2.92535754 9.0534819 6.5948251 11.37890625 12.50390625 C11.78966326 13.85193302 12.18334839 15.20524485 12.5625 16.5625 C12.77229492 17.29412354 12.98208984 18.02574707 13.19824219 18.77954102 C15.63411684 27.70388765 16.90734317 36.82735878 18 46 C18.09498779 46.75539063 18.18997559 47.51078125 18.2878418 48.2890625 C20.71157286 69.4448034 19.78673992 91.27177632 15 112 C14.81276367 112.81549316 14.62552734 113.63098633 14.43261719 114.47119141 C10.44930648 131.10271754 2.84120171 145.05556408 -12 154.375 C-21.98529331 159.91715179 -30.95404369 162.17816787 -42.3125 162.25 C-43.11623047 162.270625 -43.91996094 162.29125 -44.74804688 162.3125 C-53.81243996 162.37083881 -60.74139687 160.10880658 -67.3359375 153.81640625 C-71.38711704 149.39434407 -72.63837586 145.19269052 -72.41015625 139.30859375 C-71.40796574 133.66769287 -68.38830027 130.0273422 -63.875 126.6875 C-60.9432535 125.22479278 -57.98334472 124.42341414 -54.8125 123.625 C-43.04712103 120.58668785 -34.22561298 115.39313838 -27.73046875 104.9609375 C-26.69080065 103.00620572 -25.81790189 101.05678269 -25 99 C-24.73703125 98.34902344 -24.4740625 97.69804687 -24.203125 97.02734375 C-19.99221365 85.53327449 -18.56082859 73.72722195 -18.61987495 61.55970573 C-18.62920351 59.46044989 -18.61852861 57.36204655 -18.60325623 55.26283264 C-18.56872724 50.0649586 -18.56139637 44.86716964 -18.56335449 39.66918945 C-18.56502278 35.23820421 -18.55129599 30.80785927 -18.51487541 26.37701607 C-18.50412626 24.31945655 -18.5161195 22.26283512 -18.52870178 20.20530701 C-18.43632415 8.67618016 -18.43632415 8.67618016 -14 4 C-9.52570125 0.13583289 -5.75448551 -1.13938813 0 0 Z " fill="#161616" transform="translate(258,210)"/>
<path d="M0 0 C4.11819412 3.34603272 6.37912009 6.28624161 7.4140625 11.5390625 C7.84693194 17.98653887 5.61754652 23.18426856 2 28.4375 C-2.90534584 33.69595439 -6.88529379 36.52552786 -14.1875 36.9375 C-19.79215215 36.90033387 -22.45781083 35.2584248 -26.44140625 31.45703125 C-30.04986118 26.78141421 -30.56173702 22.10919562 -30.4375 16.35546875 C-29.44791514 9.75529115 -25.69474723 4.27448748 -20.375 0.3125 C-14.26279911 -2.98409971 -6.23658963 -3.08476477 0 0 Z " fill="#161616" transform="translate(265,146.5625)"/>
</svg>
